<?xml version="1.0" standalone="no"?>
<!DOCTYPE svg PUBLIC "-//W3C//DTD SVG 20010904//EN"
 "http://www.w3.org/TR/2001/REC-SVG-20010904/DTD/svg10.dtd">
<svg version="1.0" xmlns="http://www.w3.org/2000/svg"
 width="1063.000000pt" height="1280.000000pt" viewBox="0 0 1063.000000 1280.000000"
 preserveAspectRatio="xMidYMid meet">
<metadata>
Created by potrace 1.15, written by Peter Selinger 2001-2017
</metadata>
<g transform="translate(0.000000,1280.000000) scale(0.100000,-0.100000)"
fill="#024400" stroke="none">
<path d="M5560 12794 c-152 -30 -297 -127 -374 -251 l-25 -42 -53 5 c-29 2
-170 11 -313 19 -143 8 -466 26 -718 41 -282 17 -462 23 -467 18 -6 -6 -20
-55 -32 -109 -17 -77 -22 -134 -22 -245 -1 -161 11 -224 66 -342 26 -57 35
-68 56 -68 22 0 534 51 1257 125 301 31 303 31 340 -3 l30 -27 -5 -765 -5
-765 -185 -5 -185 -5 -3 -427 -2 -428 -148 0 c-102 0 -152 -4 -160 -12 -9 -9
-12 -74 -12 -230 l0 -218 -63 0 c-36 0 -68 -5 -75 -12 -19 -19 -17 -302 3
-322 9 -9 11 -17 5 -21 -7 -4 -10 -203 -10 -573 l0 -567 -188 -188 -187 -187
-670 2 -669 3 -11 40 c-5 22 -14 46 -18 53 -6 9 -110 12 -461 12 l-454 0 -48
138 c-26 75 -55 157 -65 182 l-17 45 -248 0 -249 0 -13 -110 c-7 -60 -15 -129
-18 -152 l-5 -43 -488 0 c-390 0 -491 -3 -499 -13 -6 -7 -22 -58 -36 -113
-130 -519 -150 -1152 -56 -1709 26 -147 77 -376 88 -387 4 -4 231 -8 504 -8
l496 -1 6 -47 c3 -26 8 -92 12 -147 3 -55 11 -106 16 -113 8 -9 69 -12 243
-12 209 0 233 2 247 18 8 9 32 95 53 190 l38 172 478 0 478 0 10 38 c6 20 17
70 26 110 l17 72 524 0 524 0 90 -45 c288 -145 695 -263 1118 -325 450 -65
1066 -68 1500 -5 461 67 851 179 1153 331 83 41 93 44 124 34 98 -32 144 -129
160 -342 l7 -86 -110 -56 c-256 -132 -362 -224 -362 -315 0 -31 53 -214 160
-555 88 -280 161 -510 163 -512 8 -8 169 -46 272 -64 658 -113 1351 44 1955
445 199 132 415 311 544 452 l38 42 -21 68 c-11 38 -74 246 -141 463 -116 384
-121 396 -157 428 -120 107 -324 154 -566 132 -71 -6 -130 -10 -132 -8 -2 2
-20 57 -40 123 -169 557 -481 1027 -796 1198 -35 20 -253 110 -484 202 -303
120 -439 179 -489 211 -37 25 -87 52 -110 60 -77 28 -185 95 -508 318 l-187
128 -5 62 c-3 33 -10 230 -16 436 -6 206 -13 403 -16 437 l-5 62 -42 3 -42 3
-5 160 -5 160 -67 3 -68 3 0 217 c0 156 -3 221 -12 230 -8 8 -58 12 -160 12
l-148 0 -2 428 -3 427 -210 5 -210 5 -3 753 -2 754 52 46 c28 26 55 46 60 45
10 -4 248 -15 1027 -49 517 -22 615 -24 622 -13 17 26 50 123 60 173 22 115 8
308 -34 486 -21 90 -24 95 -50 98 -15 2 -125 -8 -245 -22 -119 -14 -453 -53
-742 -86 -289 -33 -537 -62 -552 -65 -23 -4 -31 2 -57 44 -41 63 -135 153
-191 181 -86 44 -153 61 -250 65 -52 2 -106 1 -120 -1z"/>
<path d="M9132 2818 c-149 -441 -243 -827 -298 -1218 -23 -160 -26 -586 -5
-700 63 -350 225 -549 493 -606 105 -23 318 -14 458 19 340 80 522 231 586
487 26 103 15 311 -24 462 -104 401 -407 928 -832 1447 -93 113 -286 321 -299
321 -4 0 -39 -96 -79 -212z"/>
</g>
</svg>
