<?xml version="1.0" encoding="iso-8859-1"?>
<!-- Generator: Adobe Illustrator 16.0.0, SVG Export Plug-In . SVG Version: 6.00 Build 0)  -->
<!DOCTYPE svg PUBLIC "-//W3C//DTD SVG 1.1//EN" "http://www.w3.org/Graphics/SVG/1.1/DTD/svg11.dtd">
<svg version="1.1" id="Capa_1" xmlns="http://www.w3.org/2000/svg" xmlns:xlink="http://www.w3.org/1999/xlink" x="0px" y="0px"
	 width="952.431px" height="952.431px" viewBox="0 0 952.431 952.431" style="enable-background:new 0 0 952.431 952.431;"
	 xml:space="preserve">
<defs>
  <style>
    .couleurdefond {fill: #e50513;}
  </style>
</defs>
<g>
	<g>
		<path class="couleurdefond" d="M316.54,164.3c-48.849,20.661-92.713,50.232-130.373,87.893c-37.66,37.661-67.231,81.524-87.893,130.375
			c-21.399,50.592-32.249,104.313-32.249,159.675c0,55.36,10.85,109.083,32.249,159.675c20.661,48.849,50.232,92.713,87.893,130.373
			c37.661,37.66,81.524,67.23,130.373,87.893c50.592,21.398,104.314,32.248,159.675,32.248c55.361,0,109.083-10.85,159.675-32.249
			c48.85-20.661,92.713-50.231,130.373-87.893s67.23-81.524,87.893-130.373c21.398-50.592,32.25-104.314,32.25-159.675
			c0-55.361-10.852-109.083-32.25-159.676c-20.66-48.85-50.232-92.713-87.893-130.374c-0.438-0.438-0.889-0.86-1.328-1.297
			l18.656-19.75l34.818,29.539l43.99-51.854L743.607,108.047l-43.992,51.854l32.051,27.19l-18.875,19.982
			c-23.941-16.935-49.645-31.244-76.9-42.773c-20.031-8.473-40.555-15.285-61.477-20.432V68h54.727V0H323.289v68h54.727v75.868
			C357.095,149.015,336.571,155.827,316.54,164.3z M818.404,542.241c0,91.401-35.594,177.333-100.225,241.965
			c-64.631,64.631-150.562,100.225-241.964,100.225c-91.402,0-177.333-35.594-241.965-100.225
			c-64.631-64.632-100.225-150.562-100.225-241.965c0-91.403,35.594-177.334,100.225-241.965
			c40.77-40.77,90.019-69.97,143.766-85.985c22.003-6.557,44.76-10.89,68-12.909c9.986-0.867,20.057-1.331,30.199-1.331
			c10.142,0,20.212,0.464,30.199,1.331c23.24,2.02,45.998,6.353,68,12.909c53.748,16.016,102.996,45.216,143.766,85.985
			C782.81,364.907,818.404,450.839,818.404,542.241z M446.016,70.112h60.398v63.029c-10.006-0.724-20.074-1.091-30.199-1.091
			c-10.124,0-20.193,0.367-30.199,1.091V70.112L446.016,70.112z"/>
		<path class="couleurdefond" d="M476.215,237.782v34v32.855v1.145c7.832,0,15.603,0.381,23.298,1.128c54.359,5.282,104.779,29.005,143.902,68.129
			c44.662,44.662,69.258,104.042,69.258,167.202c0,11.352-0.805,22.576-2.375,33.645l-40.271-11.887l-95.836-28.288
			c-3.373-51.114-46.023-91.669-97.976-91.669c-54.147,0-98.199,44.052-98.199,98.199c0,54.146,44.052,98.197,98.199,98.197
			c32.167,0,60.771-15.547,78.693-39.52l199.729,58.954l2.096,0.887c15.887-37.556,23.939-77.432,23.939-118.521
			c0-81.323-31.668-157.779-89.174-215.285c-33.518-33.518-73.48-58.238-117.084-73.046
			C543.207,243.313,510.138,237.782,476.215,237.782z M476.215,572.439c-2.969,0-5.835-0.438-8.547-1.238
			c-12.501-3.696-21.652-15.276-21.652-28.959c0-16.652,13.547-30.199,30.199-30.199c2.968,0,5.835,0.438,8.548,1.239
			c12.5,3.695,21.65,15.275,21.65,28.96C506.414,558.893,492.867,572.439,476.215,572.439z"/>
	</g>
</g>
<g>
</g>
<g>
</g>
<g>
</g>
<g>
</g>
<g>
</g>
<g>
</g>
<g>
</g>
<g>
</g>
<g>
</g>
<g>
</g>
<g>
</g>
<g>
</g>
<g>
</g>
<g>
</g>
<g>
</g>
</svg>
